<svg id="Capa_1" enable-background="new 0 0 512 512" height="512" viewBox="0 0 512 512" width="512" xmlns="http://www.w3.org/2000/svg"><g><path d="m424.24 154.25-98.671 101.75v79.678c0 39.187 18.554 75.303 50.013 98.109v78.213h65.478l70.94-196.423v-82.778z" fill="#febfad"/><g><g><path d="m214.311 12.395v221.979l5.707-.722 208.604 27.82v-246.26z" fill="#5d519d"/><path d="m0 13.141v248.331l214.311-27.098v-221.979z" fill="#6260d0"/></g><g><path d="m0 261.472h214.311l30.868-43.856-30.868-128.845z" fill="#7270d5"/></g><path d="m214.311 88.771v172.701h214.311z" fill="#6260d0"/><g><g><path d="m0 0v12.395c0 30.795 15.779 58.777 42.208 74.852l172.103 104.671 32.527-97.893-32.527-94.025z" fill="#7d89e5"/></g><path d="m214.311 0v191.918l172.102-104.671c26.429-16.075 42.208-44.056 42.208-74.852v-12.395z" fill="#7270d5"/></g></g><path d="m364.34 168.347c-8.281-8.281-36.854-25.152-62.006 0-17.086 17.086-17.093 44.894-.019 61.985l75.39 75.504v15.694c0 36.694 27.746 67 63.355 71.114v119.356h70.94v-196.423z" fill="#ffcebf"/></g></svg>